<svg xmlns="http://www.w3.org/2000/svg" width="150" height="138" xmlns:v="https://vecta.io/nano"><path d="M49.407 132.032c-6.508-1.391-10.82-3.521-20.375-10.065-13.562-9.289-18.359-15.446-21.536-27.647-4.544-17.444.776-36.269 14.71-52.053 5.428-6.148 5.736-6.745 3.848-7.444-4.02-1.487-1.821-4.497 7.791-10.663C57.527 8.969 69.927 5.225 92.17 6.549c18.259 1.087 25.92 4.295 36.464 15.268 6.548 6.815 13.162 19.452 14.015 26.781.721 6.192-1.772 19.363-5.083 26.849-6.306 14.259-23.113 33.814-36.873 42.901-16.466 10.874-37.799 16.566-51.286 13.684zM79.5 112.16c11.916-4.327 23.254-14.21 34.025-29.659 8.55-12.263 10.812-18.019 10.808-27.5-.004-9.196-2.112-13.82-10.14-22.236-7.859-8.239-17.473-13.227-29.295-15.199-4.894-.816-17.218 1.04-22.542 3.395C58.439 22.693 58 23.232 58 26.309c0 4.324-2.622 7.678-9.843 12.593-17.313 11.784-26.434 30.619-23.234 47.983 1.406 7.631 2.968 10.882 7.8 16.23 4.066 4.5 10.308 8.453 16.563 10.488 6.367 2.072 22.68 1.292 30.214-1.444zm-19.035-5.111c-3.676-1.49-4.7-3.928-6.003-14.302-1.677-13.349-3.176-21.984-5.944-34.247-2.425-10.743-2.192-13.071 1.722-17.25 2.607-2.783 8.572-3.032 11.712-.489 1.621 1.312 2.422 3.541 3.146 8.75 1.139 8.195 3.216 18.137 3.94 18.861.538.538 4.398-6.277 11.679-20.621C85.657 38.02 87.774 36 93.034 36c3.639 0 7.978 2.885 7.954 5.289-.066 6.717-6.636 20.54-17.972 37.81C78.607 85.815 75 91.747 75 92.28s-1.198 3.64-2.663 6.903c-1.758 3.917-3.61 6.423-5.45 7.375-3.13 1.619-3.557 1.651-6.422.49z" fill="#060"/></svg>